<svg width="14" height="14" viewBox="0 0 14 14" fill="none" xmlns="http://www.w3.org/2000/svg">
  <path
    d="M6.97229 0.726432C6.61647 0.549643 6.62127 0.0234803 7.01813 0.00448627C10.4278 -0.158703 12.6603 4.16714 10.3736 6.93993C10.0928 7.28043 9.59331 6.81452 9.7025 6.38689C10.2458 4.25903 9.19436 1.83047 6.97229 0.726432Z"
    fill="white" />
  <path
    d="M12.9784 5.30464C13.0089 4.90404 13.5058 4.71821 13.6652 5.08697C15.0406 8.26777 11.947 11.9661 8.59621 10.8117C8.17931 10.6681 8.44406 10.0246 8.88118 9.96664C10.9934 9.68651 12.7886 7.8052 12.9784 5.30464Z"
    fill="white" />
  <path
    d="M9.65499 12.72C10.053 12.6922 10.3178 13.1525 9.98393 13.3711C7.11791 15.247 3.09193 12.6623 3.69502 9.10521C3.76911 8.66818 4.44234 8.82504 4.56069 9.25221C5.14131 11.3479 7.21598 12.8901 9.65499 12.72Z"
    fill="white" />
  <path
    d="M2.25415 11.5065C2.40318 11.8771 2.04465 12.2625 1.73853 12.0059C-0.899972 9.79497 0.252696 5.04644 3.76877 4.54962C4.20432 4.48808 4.25989 5.17251 3.89616 5.41988C2.10693 6.63675 1.3132 9.16692 2.25415 11.5065Z"
    fill="white" />
  <path
    d="M0.765912 4.91572C0.517405 5.23247 -0.00372837 5.11188 0.0663244 4.71542C0.669426 1.30218 5.23132 0.0182214 7.37965 2.86917C7.64635 3.2231 7.0615 3.61188 6.66605 3.41185C4.77336 2.45447 2.28523 2.97915 0.765912 4.91572Z"
    fill="white" />
</svg>